<svg width="41" height="41" viewBox="0 0 41 41" fill="none" xmlns="http://www.w3.org/2000/svg">
<g clip-path="url(#clip0_498_5152)">
<path d="M-0.00939941 20.37C-0.00939941 9.11996 9.11056 0 20.3606 0C31.6106 0 40.7306 9.11996 40.7306 20.37C40.7306 31.62 31.6106 40.74 20.3606 40.74C9.11056 40.74 -0.00939941 31.62 -0.00939941 20.37Z" fill="white"/>
<path d="M2.53687 15.221C2.53687 10.7844 2.53687 8.56611 3.40027 6.87157C4.15976 5.38102 5.37162 4.16916 6.86217 3.40967C8.55671 2.54626 10.775 2.54626 15.2116 2.54626H25.5096C29.9462 2.54626 32.1645 2.54626 33.859 3.40967C35.3496 4.16916 36.5615 5.38102 37.3209 6.87157C38.1844 8.56611 38.1844 10.7844 38.1844 15.221V25.519C38.1844 29.9556 38.1844 32.1739 37.3209 33.8684C36.5615 35.359 35.3496 36.5709 33.859 37.3303C32.1645 38.1938 29.9462 38.1938 25.5096 38.1938H15.2116C10.775 38.1938 8.55671 38.1938 6.86217 37.3303C5.37162 36.5709 4.15976 35.359 3.40027 33.8684C2.53687 32.1739 2.53687 29.9556 2.53687 25.519V15.221Z" fill="white"/>
<path d="M10.1757 27.4086V32.4932C10.1757 33.5298 11.0247 34.3699 12.0705 34.3699H17.1212V27.4086H10.1757Z" fill="#188038"/>
<path d="M23.605 34.3715H28.6511C29.6969 34.3715 30.5459 33.5313 30.5459 32.4948V27.4086H23.605V34.3715Z" fill="#1967D2"/>
<path d="M23.6032 27.4086H17.1212V34.3715H23.6032V27.4086Z" fill="#34A853"/>
<path d="M12.0705 6.3656C11.0247 6.3656 10.1757 7.20576 10.1757 8.24233V27.4086H17.1212V13.3799H23.6032V6.3656H12.0705Z" fill="#FBBC05"/>
<path d="M30.5459 13.3799H23.605V27.4086H30.5459V13.3799Z" fill="#4285F4"/>
<path d="M23.605 13.3799H30.5444L23.605 6.3656V13.3799Z" fill="#EA4335"/>
</g>
<defs>
<clipPath id="clip0_498_5152">
<path d="M-0.00939941 20.37C-0.00939941 9.11996 9.11056 0 20.3606 0C31.6106 0 40.7306 9.11996 40.7306 20.37C40.7306 31.62 31.6106 40.74 20.3606 40.74C9.11056 40.74 -0.00939941 31.62 -0.00939941 20.37Z" fill="white"/>
</clipPath>
</defs>
</svg>
