<svg width="42" height="41" viewBox="0 0 42 41" fill="none" xmlns="http://www.w3.org/2000/svg">
<g clip-path="url(#clip0_498_5161)">
<path d="M0.730591 20.37C0.730591 9.11996 9.85055 0 21.1006 0C32.3506 0 41.4706 9.11996 41.4706 20.37C41.4706 31.62 32.3506 40.74 21.1006 40.74C9.85055 40.74 0.730591 31.62 0.730591 20.37Z" fill="white"/>
<path d="M25.4106 13.8988C26.786 11.4971 25.9698 8.42589 23.5876 7.03921C21.2055 5.65252 18.1594 6.47545 16.7841 8.87725L6.49926 26.8382C5.12395 29.24 5.94012 32.3111 8.32226 33.6978C10.7044 35.0845 13.7505 34.2616 15.1257 31.8598L25.4106 13.8988Z" fill="#F8BB2D"/>
<path d="M15.787 29.3517C15.787 32.1259 13.5565 34.3747 10.805 34.3747C8.0536 34.3747 5.82312 32.1259 5.82312 29.3517C5.82312 26.5776 8.0536 24.3286 10.805 24.3286C13.5565 24.3286 15.787 26.5776 15.787 29.3517Z" fill="#3BA757"/>
<path d="M16.7987 13.8988C15.4234 11.4971 16.2396 8.42589 18.6217 7.03921C21.0039 5.65252 24.0498 6.47545 25.4252 8.87725L35.71 26.8382C37.0853 29.24 36.2691 32.3111 33.887 33.6978C31.5048 35.0845 28.4589 34.2616 27.0835 31.8598L16.7987 13.8988Z" fill="#4689F2"/>
</g>
<defs>
<clipPath id="clip0_498_5161">
<path d="M0.730591 20.37C0.730591 9.11996 9.85055 0 21.1006 0C32.3506 0 41.4706 9.11996 41.4706 20.37C41.4706 31.62 32.3506 40.74 21.1006 40.74C9.85055 40.74 0.730591 31.62 0.730591 20.37Z" fill="white"/>
</clipPath>
</defs>
</svg>
