<svg width="41" height="41" viewBox="0 0 41 41" fill="none" xmlns="http://www.w3.org/2000/svg">
<g clip-path="url(#clip0_498_5171)">
<path d="M0.210571 20.37C0.210571 9.11996 9.33053 0 20.5806 0C31.8306 0 40.9506 9.11996 40.9506 20.37C40.9506 31.62 31.8306 40.74 20.5806 40.74C9.33053 40.74 0.210571 31.62 0.210571 20.37Z" fill="white"/>
<path d="M2.75684 15.221C2.75684 10.7844 2.75684 8.56611 3.62024 6.87157C4.37973 5.38102 5.59159 4.16916 7.08214 3.40967C8.77668 2.54626 10.9949 2.54626 15.4316 2.54626H25.7296C30.1662 2.54626 32.3845 2.54626 34.079 3.40967C35.5696 4.16916 36.7815 5.38102 37.5409 6.87157C38.4043 8.56611 38.4043 10.7844 38.4043 15.221V25.519C38.4043 29.9556 38.4043 32.1739 37.5409 33.8684C36.7815 35.359 35.5696 36.5709 34.079 37.3303C32.3845 38.1938 30.1662 38.1938 25.7296 38.1938H15.4316C10.9949 38.1938 8.77668 38.1938 7.08214 37.3303C5.59159 36.5709 4.37973 35.359 3.62024 33.8684C2.75684 32.1739 2.75684 29.9556 2.75684 25.519V15.221Z" fill="white"/>
<path d="M20.583 15.8512L16.1768 8.07538C16.3231 7.92643 16.4914 7.82873 16.6597 7.76306C15.3605 8.19069 14.7643 9.64978 14.7643 9.64978L6.71491 23.8514C6.60165 24.2966 6.57019 24.6987 6.58435 25.0526H15.3699L20.583 15.8512Z" fill="#34A853"/>
<path d="M20.5831 15.8512L25.7962 25.0526H34.5818C34.5959 24.6987 34.5645 24.2966 34.4512 23.8514L26.4018 9.64978C26.4018 9.64978 25.8041 8.19069 24.5063 7.76306C24.673 7.82873 24.8429 7.92643 24.9892 8.07538L20.5831 15.8512Z" fill="#FBBC05"/>
<path d="M20.583 15.8522L24.9892 8.07631C24.8429 7.92736 24.673 7.82967 24.5063 7.764C24.3143 7.70153 24.1083 7.65989 23.8849 7.64868H23.652H17.514H17.2812C17.0594 7.65829 16.8518 7.69994 16.6598 7.764C16.4931 7.82967 16.3232 7.92736 16.1769 8.07631L20.583 15.8522Z" fill="#188038"/>
<path d="M15.3712 25.0535L11.0154 32.7414C11.0154 32.7414 10.8707 32.6708 10.6741 32.5251C11.2923 33.0008 11.8932 33.1017 11.8932 33.1017H29.0003C29.944 33.1017 30.1407 32.7414 30.1407 32.7414C30.1438 32.7397 30.1454 32.7382 30.1485 32.7365L25.7959 25.0535H15.3712Z" fill="#4285F4"/>
<path d="M15.3717 25.0535H6.58618C6.63023 26.0978 7.08327 26.708 7.08327 26.708L7.41361 27.2814C7.43721 27.315 7.45137 27.3343 7.45137 27.3343L8.17025 28.5963L9.78421 31.4056C9.8314 31.5193 9.88647 31.6234 9.94467 31.7227C9.96669 31.7563 9.98713 31.7931 10.0107 31.8252C10.017 31.8348 10.0233 31.8444 10.0296 31.854C10.2294 32.1359 10.4528 32.3537 10.6761 32.5251C10.8728 32.6725 11.0175 32.7414 11.0175 32.7414L15.3717 25.0535Z" fill="#1967D2"/>
<path d="M25.7961 25.0535H34.5816C34.5375 26.0978 34.0846 26.708 34.0846 26.708L33.7542 27.2814C33.7306 27.315 33.7165 27.3343 33.7165 27.3343L32.9976 28.5963L31.3836 31.4056C31.3364 31.5193 31.2814 31.6234 31.2232 31.7227C31.2012 31.7563 31.1807 31.7931 31.1571 31.8252C31.1508 31.8348 31.1445 31.8444 31.1382 31.854C30.9384 32.1359 30.7151 32.3537 30.4917 32.5251C30.2951 32.6725 30.1504 32.7414 30.1504 32.7414L25.7961 25.0535Z" fill="#EA4335"/>
</g>
<defs>
<clipPath id="clip0_498_5171">
<path d="M0.210571 20.37C0.210571 9.11996 9.33053 0 20.5806 0C31.8306 0 40.9506 9.11996 40.9506 20.37C40.9506 31.62 31.8306 40.74 20.5806 40.74C9.33053 40.74 0.210571 31.62 0.210571 20.37Z" fill="white"/>
</clipPath>
</defs>
</svg>
