<svg width="42" height="41" viewBox="0 0 42 41" fill="none" xmlns="http://www.w3.org/2000/svg">
<g clip-path="url(#clip0_498_5166)">
<path d="M0.470581 20.37C0.470581 9.11996 9.59054 0 20.8406 0C32.0906 0 41.2106 9.11996 41.2106 20.37C41.2106 31.62 32.0906 40.74 20.8406 40.74C9.59054 40.74 0.470581 31.62 0.470581 20.37Z" fill="white"/>
<path fill-rule="evenodd" clip-rule="evenodd" d="M7.74771 37.1979L3.36897 31.7429C2.31545 30.4306 1.74365 28.8166 1.74365 27.1556V7.40316C1.74365 4.91503 3.7343 2.85044 6.30234 2.6751L26.6105 1.28858C28.0859 1.18785 29.5523 1.58001 30.7643 2.39941L37.8994 7.22355C39.1767 8.08708 39.9374 9.49872 39.9374 11.0052V33.4617C39.9374 35.8967 37.9801 37.9127 35.4657 38.0675L12.9259 39.455C10.9195 39.5785 8.98008 38.7331 7.74771 37.1979Z" fill="white"/>
<path d="M14.7908 17.2872V17.0286C14.7908 16.3731 15.3159 15.8295 15.9925 15.7843L20.9212 15.4552L27.7371 25.4922V16.683L25.9827 16.4491V16.3264C25.9827 15.6631 26.5197 15.1159 27.2051 15.0807L31.6896 14.8511V15.4964C31.6896 15.7993 31.4643 16.0585 31.1556 16.1107L30.0763 16.2933V30.5595L28.722 31.0252C27.5904 31.4144 26.3308 30.9979 25.683 30.0205L19.066 20.0352V29.5656L21.1026 29.9553L21.0743 30.1442C20.9853 30.736 20.4744 31.1836 19.8565 31.2111L14.7908 31.4366C14.7239 30.8001 15.2008 30.2309 15.8587 30.1618L16.5251 30.0918V17.3846L14.7908 17.2872Z" fill="black"/>
<path fill-rule="evenodd" clip-rule="evenodd" d="M26.7923 3.77652L6.48409 5.16304C5.26765 5.2461 4.32471 6.22406 4.32471 7.40264V27.1551C4.32471 28.2624 4.70591 29.3383 5.40825 30.2134L9.787 35.6682C10.495 36.5501 11.6091 37.0358 12.7617 36.9649L35.3014 35.5774C36.4567 35.5063 37.356 34.5799 37.356 33.4612V11.0047C37.356 10.3125 37.0065 9.66392 36.4196 9.26716L29.2845 4.44301C28.5573 3.95138 27.6775 3.71608 26.7923 3.77652ZM7.49113 7.71075C7.20868 7.50163 7.34311 7.06598 7.69793 7.04053L26.9289 5.66116C27.5416 5.61721 28.1504 5.78594 28.6459 6.13702L32.5045 8.87074C32.6509 8.97452 32.5823 9.19857 32.4009 9.20843L12.0354 10.316C11.4191 10.3495 10.8108 10.1685 10.3207 9.80568L7.49113 7.71075ZM11.0802 13.7883C11.0802 13.1266 11.6147 12.5802 12.2982 12.5429L33.8302 11.3703C34.4964 11.334 35.0571 11.8463 35.0571 12.4911V31.9362C35.0571 32.5965 34.5246 33.1424 33.8424 33.1813L12.4467 34.3986C11.7053 34.4409 11.0802 33.8712 11.0802 33.1535V13.7883Z" fill="black"/>
</g>
<defs>
<clipPath id="clip0_498_5166">
<path d="M0.470581 20.37C0.470581 9.11996 9.59054 0 20.8406 0C32.0906 0 41.2106 9.11996 41.2106 20.37C41.2106 31.62 32.0906 40.74 20.8406 40.74C9.59054 40.74 0.470581 31.62 0.470581 20.37Z" fill="white"/>
</clipPath>
</defs>
</svg>
