<svg width="42" height="41" viewBox="0 0 42 41" fill="none" xmlns="http://www.w3.org/2000/svg">
<g clip-path="url(#clip0_498_5180)">
<path d="M0.950562 20.37C0.950562 9.11996 10.0705 0 21.3206 0C32.5706 0 41.6906 9.11996 41.6906 20.37C41.6906 31.62 32.5706 40.74 21.3206 40.74C10.0705 40.74 0.950562 31.62 0.950562 20.37Z" fill="white"/>
<path d="M34.6886 19.0964C36.4462 19.0964 37.8711 17.6715 37.8711 15.9138C37.8711 14.1561 36.4461 12.7312 34.6884 12.7312C32.9306 12.7312 31.5055 14.1562 31.5055 15.914V19.0964H34.6886ZM25.7764 19.0964C27.5342 19.0964 28.9593 17.6713 28.9593 15.9135V7.00215C28.9593 5.24433 27.5342 3.81934 25.7764 3.81934C24.0186 3.81934 22.5936 5.24433 22.5936 7.00215V15.9135C22.5936 17.6713 24.0186 19.0964 25.7764 19.0964Z" fill="#2EB67D"/>
<path d="M7.95244 21.6431C6.19477 21.6431 4.7699 23.0679 4.7699 24.8256C4.7699 26.5833 6.19491 28.0082 7.95257 28.0082C9.7104 28.0082 11.1355 26.5832 11.1355 24.8254V21.6431H7.95244ZM16.8646 21.6431C15.1068 21.6431 13.6818 23.0681 13.6818 24.8259V33.7372C13.6818 35.495 15.1068 36.9201 16.8646 36.9201C18.6224 36.9201 20.0474 35.495 20.0474 33.7372V24.8259C20.0474 23.0681 18.6224 21.6431 16.8646 21.6431Z" fill="#E01E5A"/>
<path d="M22.5942 33.738C22.5942 35.4957 24.0191 36.9206 25.7768 36.9206C27.5345 36.9206 28.9594 35.4956 28.9594 33.7379C28.9594 31.9801 27.5343 30.5549 25.7765 30.5549H22.5942V33.738ZM22.5942 24.8259C22.5942 26.5837 24.0192 28.0087 25.7771 28.0087H34.6884C36.4462 28.0087 37.8712 26.5837 37.8712 24.8259C37.8712 23.0681 36.4462 21.6431 34.6884 21.6431H25.7771C24.0192 21.6431 22.5942 23.0681 22.5942 24.8259Z" fill="#ECB22E"/>
<path d="M20.0469 7.00188C20.0469 5.2442 18.622 3.81934 16.8643 3.81934C15.1067 3.81934 13.6818 5.24434 13.6818 7.00201C13.6818 8.75984 15.1068 10.185 16.8646 10.185H20.0469V7.00188ZM20.0469 15.914C20.0469 14.1562 18.6219 12.7312 16.8641 12.7312H7.95271C6.19489 12.7312 4.7699 14.1562 4.7699 15.914C4.7699 17.6718 6.19489 19.0968 7.95271 19.0968H16.8641C18.6219 19.0968 20.0469 17.6718 20.0469 15.914Z" fill="#36C5F0"/>
</g>
<defs>
<clipPath id="clip0_498_5180">
<path d="M0.950562 20.37C0.950562 9.11996 10.0705 0 21.3206 0C32.5706 0 41.6906 9.11996 41.6906 20.37C41.6906 31.62 32.5706 40.74 21.3206 40.74C10.0705 40.74 0.950562 31.62 0.950562 20.37Z" fill="white"/>
</clipPath>
</defs>
</svg>
