<svg width="42" height="41" viewBox="0 0 42 41" fill="none" xmlns="http://www.w3.org/2000/svg">
<g clip-path="url(#clip0_498_5186)">
<path d="M0.690674 20.37C0.690674 9.11996 9.81064 0 21.0607 0C32.3107 0 41.4307 9.11996 41.4307 20.37C41.4307 31.62 32.3107 40.74 21.0607 40.74C9.81064 40.74 0.690674 31.62 0.690674 20.37Z" fill="white"/>
<path d="M24.8229 24.1403C22.4045 25.0503 19.6944 25.0519 17.2758 24.1408C16.3646 21.7249 16.3644 19.0154 17.2744 16.5992C19.6923 15.6875 22.4051 15.6874 24.823 16.599C25.7339 19.0145 25.7336 21.7248 24.8229 24.1403ZM38.6367 17.3988H28.2258L35.5869 10.0419C34.4317 8.42018 33.0054 6.99554 31.3827 5.84098L24.0211 13.1979V2.7938C22.0563 2.4635 20.0413 2.464 18.0766 2.7938V13.1979L10.7149 5.84098C9.09254 6.99476 7.66585 8.42135 6.51051 10.0419L13.8728 17.3988H3.46207C3.20509 19.4212 3.12159 21.3218 3.46207 23.34H13.8729L6.51065 30.6969C7.66879 32.3211 9.08966 33.741 10.7149 34.8984L18.0766 27.5409V37.9455C20.0416 38.2746 22.0559 38.2749 24.0208 37.9455V27.5409L31.3832 34.8984C33.0067 33.7427 34.4304 32.3192 35.5869 30.6969L28.2247 23.34H38.6367C38.9671 21.3782 38.9671 19.3606 38.6367 17.3988Z" fill="#FF4A00"/>
</g>
<defs>
<clipPath id="clip0_498_5186">
<path d="M0.690674 20.37C0.690674 9.11996 9.81064 0 21.0607 0C32.3107 0 41.4307 9.11996 41.4307 20.37C41.4307 31.62 32.3107 40.74 21.0607 40.74C9.81064 40.74 0.690674 31.62 0.690674 20.37Z" fill="white"/>
</clipPath>
</defs>
</svg>
